<?xml version="1.0" encoding="UTF-8" standalone="no"?>
<!DOCTYPE svg PUBLIC "-//W3C//DTD SVG 1.1//EN" "http://www.w3.org/Graphics/SVG/1.1/DTD/svg11.dtd">
<!-- 由 Microsoft Visio, SVG Export 生成 application.svg 页-1 -->
<svg xmlns="http://www.w3.org/2000/svg" xmlns:xlink="http://www.w3.org/1999/xlink" xmlns:ev="http://www.w3.org/2001/xml-events"
		width="7.18619in" height="4.33579in" viewBox="0 0 517.406 312.177" xml:space="preserve" color-interpolation-filters="sRGB"
		class="st8">
	<style type="text/css">
	<![CDATA[
		.st1 {fill:#f2f2f2;stroke:#7f7f7f;stroke-width:0.75}
		.st2 {fill:#d8d8d8;stroke:none;stroke-width:0.75}
		.st3 {fill:#bfbfbf;stroke:none;stroke-width:0.75}
		.st4 {fill:#7f7f7f;stroke:none;stroke-width:0.75}
		.st5 {fill:none;stroke:none;stroke-width:0.75}
		.st6 {fill:#000000;font-family:Calibri;font-size:1.99999em;font-weight:bold}
		.st7 {fill:#7f7f7f;font-size:1em;font-weight:normal}
		.st8 {fill:none;fill-rule:evenodd;font-size:12px;overflow:visible;stroke-linecap:square;stroke-miterlimit:3}
	]]>
	</style>

	<g>
		<title>页-1</title>
		<g id="shape2-1" transform="translate(0.75,-0.75)">
			<title>矩形</title>
			<rect x="0" y="1.49999" width="515.906" height="310.677" class="st1"/>
		</g>
		<g id="shape3-3" transform="translate(13.5059,-270.041)">
			<title>矩形.3</title>
			<rect x="0" y="283.831" width="488.976" height="28.3465" class="st2"/>
		</g>
		<g id="shape4-5" transform="translate(13.5059,-14.9232)">
			<title>矩形.4</title>
			<rect x="0" y="66.7565" width="113.386" height="245.421" class="st2"/>
		</g>
		<g id="shape5-7" transform="translate(148.152,-231.997)">
			<title>矩形.5</title>
			<rect x="0" y="283.831" width="354.331" height="28.3465" class="st3"/>
		</g>
		<g id="shape6-9" transform="translate(148.152,-14.9232)">
			<title>矩形.6</title>
			<rect x="0" y="104.8" width="113.386" height="207.377" class="st3"/>
		</g>
		<g id="shape7-11" transform="translate(282.797,-14.9232)">
			<title>矩形.7</title>
			<rect x="0" y="104.8" width="219.685" height="207.377" class="st2"/>
		</g>
		<g id="shape8-13" transform="translate(25.0683,-29.0965)">
			<title>矩形.8</title>
			<rect x="0" y="137.623" width="90.7087" height="174.554" class="st3"/>
		</g>
		<g id="shape10-15" transform="translate(25.0683,-218.57)">
			<title>圆形</title>
			<path d="M0 298 A14.1732 14.1732 0 0 1 28.35 298 A14.1732 14.1732 0 1 1 0 298 Z" class="st4"/>
		</g>
		<g id="shape11-17" transform="translate(59.5689,-227.522)">
			<title>矩形.11</title>
			<rect x="0" y="299.682" width="53.1496" height="12.4948" class="st4"/>
		</g>
		<g id="shape12-19" transform="translate(162.325,-238.664)">
			<title>矩形.12</title>
			<rect x="0" y="297.165" width="150.236" height="15.0124" class="st4"/>
		</g>
		<g id="shape13-21" transform="translate(449.333,-238.664)">
			<title>矩形.13</title>
			<rect x="0" y="297.165" width="38.9764" height="15.0124" class="st4"/>
		</g>
		<g id="shape14-23" transform="translate(162.325,-195.306)">
			<title>矩形.14</title>
			<rect x="0" y="297.165" width="90.7087" height="15.0124" class="st4"/>
		</g>
		<g id="shape15-25" transform="translate(171.276,-169.99)">
			<title>矩形.15</title>
			<rect x="0" y="297.165" width="81.7571" height="15.0124" class="st4"/>
		</g>
		<g id="shape16-27" transform="translate(171.276,-143.508)">
			<title>矩形.16</title>
			<rect x="0" y="297.165" width="81.7571" height="15.0124" class="st4"/>
		</g>
		<g id="shape17-29" transform="translate(295.106,-29.0965)">
			<title>矩形.17</title>
			<rect x="0" y="147.74" width="193.203" height="164.437" class="st3"/>
		</g>
		<g id="shape18-31" transform="translate(282.797,-201.04)">
			<title>矩形.18</title>
			<rect x="0" y="290.917" width="219.685" height="21.2598" class="st3"/>
		</g>
		<g id="shape19-33" transform="translate(20.5925,-277.967)">
			<title>矩形.19</title>
			<rect x="0" y="299.682" width="150.236" height="12.4948" class="st4"/>
		</g>
		<g id="shape20-35" transform="translate(424.53,-277.967)">
			<title>矩形.20</title>
			<rect x="0" y="299.682" width="63.7795" height="12.4948" class="st4"/>
		</g>
		<g id="shape23-37" transform="translate(200.593,-264.365)">
			<title>矩形.23</title>
			<desc>Application</desc>
			<rect x="0" y="272.478" width="150.236" height="39.699" class="st5"/>
			<text x="19.5" y="299.53" class="st6">A<tspan class="st7">pplication</tspan></text>		</g>
	</g>
</svg>
