<?xml version="1.0" encoding="UTF-8" standalone="no"?>
<!DOCTYPE svg PUBLIC "-//W3C//DTD SVG 1.1//EN" "http://www.w3.org/Graphics/SVG/1.1/DTD/svg11.dtd">
<!-- 由 Microsoft Visio, SVG Export 生成 router.svg 页-1 -->
<svg xmlns="http://www.w3.org/2000/svg" xmlns:xlink="http://www.w3.org/1999/xlink" xmlns:ev="http://www.w3.org/2001/xml-events"
		width="6.98214in" height="5.1777in" viewBox="0 0 502.714 372.794" xml:space="preserve" color-interpolation-filters="sRGB"
		class="st15">
	<style type="text/css">
	<![CDATA[
		.st1 {fill:none;stroke:#0c0c0c;stroke-width:4.5}
		.st2 {fill:#3f3f3f;font-family:Calibri;font-size:2.50001em;font-weight:bold}
		.st3 {fill:#bdd7ee;stroke:none;stroke-width:4.5}
		.st4 {fill:none;stroke:none;stroke-width:0.25}
		.st5 {fill:#000000;font-family:Calibri;font-size:1.33333em;font-weight:bold}
		.st6 {fill:#000000;font-family:Calibri;font-size:1.5em;font-weight:bold}
		.st7 {fill:none;stroke:#000000;stroke-width:4.5}
		.st8 {marker-end:url(#mrkr5-49);stroke:#5b9bd5;stroke-linecap:round;stroke-linejoin:round;stroke-width:6}
		.st9 {fill:#5b9bd5;fill-opacity:1;stroke:#5b9bd5;stroke-opacity:1;stroke-width:0.70422535211268}
		.st10 {marker-end:url(#mrkr5-60);stroke:#5b9bd5;stroke-linecap:round;stroke-linejoin:round;stroke-width:6}
		.st11 {visibility:visible}
		.st12 {fill:#5b9bd5;fill-opacity:0.22;filter:url(#filter_2);stroke:#5b9bd5;stroke-dasharray:4.5,9;stroke-opacity:0.22}
		.st13 {fill:#ffffff;stroke:#0c0c0c;stroke-dasharray:4.5,9;stroke-width:4.5}
		.st14 {fill:#bfbfbf;font-family:Calibri;font-size:1.00001em;font-weight:bold}
		.st15 {fill:none;fill-rule:evenodd;font-size:12px;overflow:visible;stroke-linecap:square;stroke-miterlimit:3}
	]]>
	</style>

	<defs id="Markers">
		<g id="lend5">
			<path d="M 2 1 L 0 0 L 1.98117 -0.993387 C 1.67173 -0.364514 1.67301 0.372642 1.98465 1.00043 " style="stroke:none"/>
		</g>
		<marker id="mrkr5-49" class="st9" refX="-2.485" orient="auto" markerUnits="strokeWidth" overflow="visible">
			<use xlink:href="#lend5" transform="scale(-1.42,-1.42) "/>
		</marker>
		<marker id="mrkr5-60" class="st9" refX="-2.425" orient="auto" markerUnits="strokeWidth" overflow="visible">
			<use xlink:href="#lend5" transform="scale(-1.42,-1.42) "/>
		</marker>
	</defs>
	<defs id="Filters">
		<filter id="filter_2">
			<feGaussianBlur stdDeviation="2"/>
		</filter>
	</defs>
	<g>
		<title>页-1</title>
		<g id="shape11-1" transform="translate(430.101,-265.228)">
			<title>圆形.11</title>
			<desc>R</desc>
			<path d="M0 345.66 A27.1382 27.1382 0 0 1 54.28 345.66 A27.1382 27.1382 0 1 1 0 345.66 Z" class="st1"/>
			<text x="18.69" y="354.66" class="st2">R</text>		</g>
		<g id="shape12-4" transform="translate(54.5107,-100.715)">
			<title>圆形.12</title>
			<desc>w</desc>
			<path d="M0 340.11 A32.6797 32.6797 0 1 1 65.36 340.11 A32.6797 32.6797 0 0 1 0 340.11 Z" class="st1"/>
			<text x="21.5" y="349.11" class="st2">w</text>		</g>
		<g id="shape15-7" transform="translate(119.498,-265.228)">
			<title>圆角矩形</title>
			<path d="M7.3 372.79 L274.96 372.79 A7.29555 7.29555 -180 0 0 282.26 365.5 L282.26 325.81 A7.29555 7.29555 -180 0 0 274.96
						 318.52 L7.3 318.52 A7.29555 7.29555 -180 0 0 0 325.81 L0 365.5 A7.29555 7.29555 -180 0 0 7.3 372.79 Z"
					class="st1"/>
		</g>
		<g id="shape33-9" transform="translate(300.207,-277.856)">
			<title>圆角矩形.33</title>
			<path d="M2.26 372.79 L85.12 372.79 A2.25839 2.25839 -180 0 0 87.37 370.54 L87.37 346.03 A2.25839 2.25839 -180 0 0 85.12
						 343.77 L2.26 343.77 A2.25839 2.25839 -180 0 0 0 346.03 L0 370.54 A2.25839 2.25839 -180 0 0 2.26 372.79 Z"
					class="st3"/>
		</g>
		<g id="shape16-11" transform="translate(119.498,-282.366)">
			<title>工作表.16</title>
			<desc>HTTP://VERONICA.COM/#DASHBORD</desc>
			<rect x="0" y="352.794" width="282.256" height="20" class="st4"/>
			<text x="15.43" y="367.59" class="st5">HTTP://VERONICA.COM/#DASHBORD</text>		</g>
		<g id="shape17-14" transform="translate(54.5107,-24.2046)">
			<title>圆形.17</title>
			<desc>w</desc>
			<path d="M0 340.11 A32.6797 32.6797 0 1 1 65.36 340.11 A32.6797 32.6797 0 0 1 0 340.11 Z" class="st1"/>
			<text x="21.5" y="349.11" class="st2">w</text>		</g>
		<g id="shape23-17" transform="translate(19.0776,-4.5)">
			<title>圆角矩形.23</title>
			<path d="M3.52 372.79 L132.7 372.79 A3.52106 3.52106 -180 0 0 136.23 369.27 L136.23 172.52 A3.52106 3.52106 -180 0 0
						 132.7 169 L3.52 169 A3.52106 3.52106 -180 0 0 0 172.52 L0 369.27 A3.52106 3.52106 -180 0 0 3.52 372.79 Z"
					class="st1"/>
		</g>
		<g id="shape24-19" transform="translate(43.5032,-180.248)">
			<title>工作表.24</title>
			<desc>PAGE-A</desc>
			<rect x="0" y="352.794" width="87.3744" height="20" class="st4"/>
			<text x="15.11" y="368.19" class="st6">PAGE-A</text>		</g>
		<g id="shape25-22" transform="translate(227.343,-101.016)">
			<title>圆形.25</title>
			<desc>w</desc>
			<path d="M0 340.11 A32.6797 32.6797 0 1 1 65.36 340.11 A32.6797 32.6797 0 0 1 0 340.11 Z" class="st1"/>
			<text x="21.5" y="349.11" class="st2">w</text>		</g>
		<g id="shape26-25" transform="translate(227.343,-24.5055)">
			<title>圆形.26</title>
			<desc>w</desc>
			<path d="M0 340.11 A32.6797 32.6797 0 1 1 65.36 340.11 A32.6797 32.6797 0 0 1 0 340.11 Z" class="st1"/>
			<text x="21.5" y="349.11" class="st2">w</text>		</g>
		<g id="shape27-28" transform="translate(191.91,-4.80096)">
			<title>圆角矩形.27</title>
			<path d="M3.52 372.79 L132.7 372.79 A3.52106 3.52106 -180 0 0 136.23 369.27 L136.23 172.52 A3.52106 3.52106 -180 0 0
						 132.7 169 L3.52 169 A3.52106 3.52106 -180 0 0 0 172.52 L0 369.27 A3.52106 3.52106 -180 0 0 3.52 372.79 Z"
					class="st7"/>
		</g>
		<g id="shape28-30" transform="translate(191.91,-180.549)">
			<title>工作表.28</title>
			<desc>PAGE-DAS...</desc>
			<rect x="0" y="352.794" width="136.226" height="20" class="st4"/>
			<text x="22.4" y="368.19" class="st6">PAGE-DAS...</text>		</g>
		<g id="shape29-33" transform="translate(397.422,-101.016)">
			<title>圆形.29</title>
			<desc>w</desc>
			<path d="M0 340.11 A32.6797 32.6797 0 1 1 65.36 340.11 A32.6797 32.6797 0 0 1 0 340.11 Z" class="st1"/>
			<text x="21.5" y="349.11" class="st2">w</text>		</g>
		<g id="shape30-36" transform="translate(397.422,-24.5055)">
			<title>圆形.30</title>
			<desc>w</desc>
			<path d="M0 340.11 A32.6797 32.6797 0 1 1 65.36 340.11 A32.6797 32.6797 0 0 1 0 340.11 Z" class="st1"/>
			<text x="21.5" y="349.11" class="st2">w</text>		</g>
		<g id="shape31-39" transform="translate(361.988,-4.80096)">
			<title>圆角矩形.31</title>
			<path d="M3.52 372.79 L132.7 372.79 A3.52106 3.52106 -180 0 0 136.23 369.27 L136.23 172.52 A3.52106 3.52106 -180 0 0
						 132.7 169 L3.52 169 A3.52106 3.52106 -180 0 0 0 172.52 L0 369.27 A3.52106 3.52106 -180 0 0 3.52 372.79 Z"
					class="st1"/>
		</g>
		<g id="shape32-41" transform="translate(386.414,-180.549)">
			<title>工作表.32</title>
			<desc>PAGE-C</desc>
			<rect x="0" y="352.794" width="87.3744" height="20" class="st4"/>
			<text x="15.8" y="368.19" class="st6">PAGE-C</text>		</g>
		<g id="shape34-44" transform="translate(457.03,-259.976)">
			<title>动态连接线</title>
			<path d="M0 372.79 L0 386.97 L-197.01 386.97 L-197.01 409.27" class="st8"/>
		</g>
		<g id="shape35-50" transform="translate(60.8514,-284.295)">
			<title>动态连接线.35</title>
			<path d="M0 365.93 L39.69 365.61" class="st8"/>
		</g>
		<g id="shape36-55" transform="translate(347.897,-330.134)">
			<title>动态连接线.36</title>
			<path d="M0 376.34 C-4 383.68 4 368.4 19.83 358.37 C39.01 346.22 69.68 341.78 99.57 372.16 L99.81 372.43" class="st10"/>
		</g>
		<g id="shape73-61" transform="translate(4.9044,-179.83)">
			<title>圆形.73</title>
			<desc>P</desc>
			<g id="shadow73-62" transform="matrix(1,0,0,1,0.345598,1.97279)" class="st11">
				<path d="M0 345.66 A27.1382 27.1382 0 0 1 54.28 345.66 A27.1382 27.1382 0 1 1 0 345.66 Z" class="st12"/>
			</g>
			<path d="M0 345.66 A27.1382 27.1382 0 0 1 54.28 345.66 A27.1382 27.1382 0 1 1 0 345.66 Z" class="st13"/>
			<text x="19.15" y="354.66" class="st2">P</text>		</g>
		<g id="shape74-67" transform="translate(160.81,-179.83)">
			<title>圆形.74</title>
			<desc>P</desc>
			<g id="shadow74-68" transform="matrix(1,0,0,1,0.345598,1.97279)" class="st11">
				<path d="M0 345.66 A27.1382 27.1382 0 0 1 54.28 345.66 A27.1382 27.1382 0 1 1 0 345.66 Z" class="st12"/>
			</g>
			<path d="M0 345.66 A27.1382 27.1382 0 0 1 54.28 345.66 A27.1382 27.1382 0 1 1 0 345.66 Z" class="st13"/>
			<text x="19.15" y="354.66" class="st2">P</text>		</g>
		<g id="shape75-73" transform="translate(337.602,-183.381)">
			<title>圆形.75</title>
			<desc>P</desc>
			<g id="shadow75-74" transform="matrix(1,0,0,1,0.345598,1.97279)" class="st11">
				<path d="M0 345.66 A27.1382 27.1382 0 0 1 54.28 345.66 A27.1382 27.1382 0 1 1 0 345.66 Z" class="st12"/>
			</g>
			<path d="M0 345.66 A27.1382 27.1382 0 0 1 54.28 345.66 A27.1382 27.1382 0 1 1 0 345.66 Z" class="st13"/>
			<text x="19.15" y="354.66" class="st2">P</text>		</g>
		<g id="shape82-79" transform="translate(53.9547,-295.331)">
			<title>工作表.82</title>
			<desc>INPUT</desc>
			<rect x="0" y="352.794" width="65.3594" height="20" class="st4"/>
			<text x="17.05" y="366.39" class="st14">INPUT</text>		</g>
	</g>
</svg>
